<svg width="55" height="41" viewBox="0 0 55 41" fill="none" xmlns="http://www.w3.org/2000/svg">
<g clip-path="url(#clip0_619_102)">
<path d="M20.3132 41C31.5121 41 40.6264 31.8018 40.6264 20.5C40.6264 9.19815 31.5121 0 20.3132 0C9.11434 0 0 9.19815 0 20.5C0 31.8018 9.11434 41 20.3132 41ZM1.48271 21.2394H6.05297C6.2274 28.3162 8.90501 34.4865 12.856 37.9721C6.36695 35.1378 1.76181 28.7387 1.47399 21.2394H1.48271ZM21.0458 39.398V21.2394H27.0814C26.9418 31.3793 24.0113 38.3946 21.0458 39.398ZM21.0458 19.7606V1.60198C24.0113 2.60541 26.9418 9.62065 27.0814 19.7606H21.0458ZM19.5806 1.60198V19.7606H13.545C13.6846 9.62065 16.6151 2.60541 19.5806 1.60198ZM19.5806 21.2394V39.398C16.6151 38.3946 13.6846 31.3793 13.545 21.2394H19.5806ZM24.2206 38.6146C26.7325 35.3051 28.4332 28.862 28.5379 21.2306H33.1082C32.8988 29.3725 29.2269 36.2205 24.2206 38.6146ZM28.5379 19.7606C28.4332 12.1292 26.7325 5.68613 24.2206 2.37656C29.2269 4.76191 32.8988 11.6099 33.1082 19.7606H28.5379ZM16.4058 2.38536C13.8939 5.69493 12.1931 12.138 12.0885 19.7694H7.51824C7.72756 11.6275 11.3995 4.77952 16.4058 2.38536ZM12.0885 21.2394C12.1931 28.8708 13.8939 35.3139 16.4058 38.6234C11.3995 36.2381 7.72756 29.3901 7.51824 21.2394H12.0885ZM27.7704 37.9721C31.7214 34.4865 34.399 28.3074 34.5734 21.2394H39.1437C38.8559 28.7387 34.2507 35.1466 27.7704 37.9721ZM39.1437 19.7606H34.5734C34.399 12.6838 31.7214 6.51353 27.7704 3.02791C34.2594 5.86217 38.8646 12.2613 39.1437 19.7606ZM12.856 3.02791C8.90501 6.51353 6.2274 12.6926 6.05297 19.7606H1.48271C1.76181 12.2613 6.36695 5.86217 12.856 3.02791Z" fill="#2A272D"/>
<path d="M37.042 2.38525C35.6116 2.38525 34.2161 2.55249 32.873 2.88697C33.6231 3.46791 34.3557 4.09285 35.0273 4.76181C35.4721 4.2865 35.9431 3.96082 36.4053 3.80239V6.25816C36.8676 6.80389 37.295 7.36722 37.6962 7.94816V3.80239C40.3214 4.68259 42.9118 10.888 43.0339 19.8485H41.5687C41.5861 20.0686 41.5861 20.2798 41.5861 20.4999C41.5861 20.7199 41.5861 20.94 41.5687 21.1601H43.0339C42.9118 30.1117 40.3214 36.3172 37.6962 37.2062V33.0516C37.295 33.6326 36.8676 34.1959 36.4053 34.7416V37.2062C35.9431 37.0478 35.4721 36.7133 35.0273 36.238C34.347 36.9157 33.6318 37.5407 32.8643 38.1304C34.2074 38.4561 35.6029 38.6321 37.042 38.6321C46.95 38.6321 55.0003 30.5078 55.0003 20.5087C55.0003 10.5096 46.95 2.38525 37.042 2.38525ZM53.692 19.8485H49.6538C49.4968 13.5991 47.1332 8.1418 43.6357 5.06108C49.3747 7.56087 53.4391 13.2206 53.692 19.8485ZM40.5133 4.48895C44.9353 6.60144 48.1885 12.6573 48.3717 19.8485H44.3248C44.2288 13.115 42.7287 7.41123 40.5133 4.48895ZM40.5133 36.5108C42.7287 33.5886 44.2288 27.8936 44.3248 21.1601H48.3717C48.1885 28.3601 44.9353 34.4072 40.5133 36.5108ZM43.6357 35.9475C47.1245 32.858 49.4881 27.4095 49.6538 21.1601H53.692C53.4391 27.788 49.3747 33.4477 43.6357 35.9475Z" fill="#2A272D"/>
</g>
<defs>
<clipPath id="clip0_619_102">
<rect width="55" height="41" fill="white"/>
</clipPath>
</defs>
</svg>
