<svg width="51" height="51" viewBox="0 0 51 51" fill="none" xmlns="http://www.w3.org/2000/svg">
<g clip-path="url(#clip0_619_119)">
<path d="M16.6896 34.3207C3.30249 20.9336 -3.30183 6.58455 1.63654 1.63627C6.58482 -3.31201 20.9338 3.30222 34.321 16.6794C47.7081 30.0566 54.3124 44.4156 49.3641 49.3639C44.4159 54.3121 30.0668 47.6979 16.6797 34.3207H16.6896ZM33.6169 17.3934C21.0628 4.83927 6.74348 -2.05263 2.3406 2.34033C-2.05236 6.73329 4.83953 21.0625 17.3838 33.6067C29.928 46.151 44.2572 53.0528 48.6502 48.6499C53.0431 44.2569 46.1512 29.9277 33.607 17.3835L33.6169 17.3934Z" fill="#2F2F2F"/>
<path d="M14.5374 36.4724C2.55837 24.4934 -2.261 9.837 3.788 3.788C9.837 -2.261 24.4934 2.55837 36.4724 14.5374C48.4415 26.5065 53.2708 41.1728 47.2218 47.2218C41.1728 53.2708 26.5164 48.4514 14.5374 36.4724ZM35.7584 15.2414C24.1761 3.65909 10.1543 -1.17019 4.49207 4.49207C-1.17019 10.1543 3.65909 24.1761 15.2414 35.7584C26.8238 47.3408 40.8555 52.1602 46.5078 46.5078C52.1602 40.8555 47.3408 26.8238 35.7584 15.2414Z" fill="#2F2F2F"/>
<path d="M12.3855 38.6143C1.59643 27.8253 -1.29916 13.1689 5.93981 5.93981C13.1689 -1.29916 27.8253 1.59643 38.6143 12.3855C49.4033 23.1745 52.2989 37.8309 45.06 45.0699C37.821 52.3089 23.1646 49.4133 12.3755 38.6242L12.3855 38.6143ZM37.9103 13.0895C27.508 2.68723 13.4862 -0.198439 6.64387 6.64387C-0.198439 13.4862 2.68723 27.508 13.0895 37.9103C23.4918 48.3125 37.5136 51.1982 44.3559 44.3559C51.1982 37.5136 48.3026 23.4819 37.9103 13.0895Z" fill="#2F2F2F"/>
<path d="M10.2339 40.7665C0.634831 31.1674 -0.327058 16.5011 8.08204 8.08204C16.5011 -0.327059 31.1674 0.634831 40.7665 10.2339C50.3655 19.833 51.3373 34.4993 42.9183 42.9183C34.4993 51.3373 19.8429 50.3755 10.2339 40.7665ZM40.0624 10.938C30.8501 1.72563 16.8184 0.763744 8.79602 8.79602C0.763744 16.8184 1.72563 30.8501 10.938 40.0624C20.1503 49.2747 34.182 50.2366 42.2043 42.2143C50.2366 34.182 49.2648 20.1602 40.0525 10.9479L40.0624 10.938Z" fill="#2F2F2F"/>
<path d="M8.08204 42.9183C-0.327059 34.4993 0.634831 19.8429 10.2339 10.2339C19.8429 0.634831 34.4993 -0.327059 42.9183 8.08204C51.3373 16.4911 50.3755 31.1575 40.7665 40.7665C31.1575 50.3755 16.5011 51.3373 8.08204 42.9183ZM42.2143 8.79602C34.182 0.763744 20.1503 1.72563 10.938 10.938C1.72563 20.1503 0.763744 34.182 8.79602 42.2143C16.8283 50.2465 30.8501 49.2747 40.0624 40.0624C49.2747 30.8501 50.2366 16.8184 42.2143 8.79602Z" fill="#2F2F2F"/>
<path d="M5.93981 45.0699C-1.29916 37.8309 1.59643 23.1745 12.3855 12.3855C23.1745 1.59643 37.8309 -1.29916 45.0699 5.93981C52.3089 13.1788 49.4133 27.8352 38.6242 38.6242C27.8352 49.4133 13.1788 52.3089 5.93981 45.0699ZM44.3658 6.64387C37.5136 -0.198439 23.4918 2.68723 13.0895 13.0895C2.68723 23.4918 -0.198439 37.5136 6.64387 44.3658C13.4862 51.2081 27.5179 48.3125 37.9103 37.9202C48.3026 27.5278 51.1982 13.4961 44.3559 6.65379L44.3658 6.64387Z" fill="#2F2F2F"/>
<path d="M3.788 47.2121C-2.261 41.1631 2.55837 26.5067 14.5374 14.5277C26.5065 2.55862 41.1728 -2.26075 47.2119 3.78825C53.2609 9.83725 48.4415 24.4937 36.4625 36.4727C24.4934 48.4418 9.82708 53.271 3.77809 47.222L3.788 47.2121ZM46.5078 4.49231C40.8456 -1.16994 26.8238 3.65934 15.2414 15.2417C3.65909 26.824 -1.17019 40.8557 4.49207 46.5081C10.1543 52.1703 24.1761 47.341 35.7584 35.7587C47.3408 24.1764 52.1602 10.1447 46.5078 4.49231Z" fill="#2F2F2F"/>
<path d="M1.63578 49.3639C-3.3125 44.4157 3.30174 30.0666 16.6789 16.6795C30.0562 3.29238 44.425 -3.30202 49.3634 1.63635C54.3117 6.58463 47.6974 20.9336 34.3202 34.3208C20.943 47.7079 6.58406 54.3122 1.63578 49.3639ZM48.6593 2.34041C44.2663 -2.05255 29.9372 4.83934 17.3929 17.3836C4.83878 29.9476 -2.05312 44.2669 2.33985 48.6599C6.73281 53.0528 21.062 46.1609 33.6062 33.6167C46.1604 21.0626 53.0523 6.74329 48.6494 2.35033L48.6593 2.34041Z" fill="#2F2F2F"/>
</g>
<defs>
<clipPath id="clip0_619_119">
<rect width="51" height="51" fill="white"/>
</clipPath>
</defs>
</svg>
