<svg width="33" height="32" viewBox="0 0 33 32" fill="none" xmlns="http://www.w3.org/2000/svg">
<g clip-path="url(#clip0_607_75)">
<path fill-rule="evenodd" clip-rule="evenodd" d="M13.4982 17.0595C13.1045 16.7608 12.5795 16.6123 11.9337 16.6123H8.67188V20.3648H11.8736C12.1697 20.3648 12.4506 20.3386 12.7149 20.2794C12.9832 20.2208 13.2212 20.1278 13.4219 19.9904C13.6225 19.8582 13.7887 19.6771 13.9095 19.4467C14.0308 19.2183 14.0889 18.9217 14.0889 18.5634C14.0889 17.8609 13.8913 17.3624 13.4982 17.0595Z" fill="#141414"/>
<path fill-rule="evenodd" clip-rule="evenodd" d="M13.0283 14.1821C13.3734 13.9302 13.5407 13.5138 13.5407 12.9428C13.5407 12.6257 13.4852 12.3637 13.3734 12.1603C13.2577 11.9569 13.1046 11.7978 12.9111 11.6864C12.7191 11.5704 12.5022 11.4903 12.2506 11.4471C12.0035 11.3988 11.7443 11.3799 11.4789 11.3799H8.67188V14.5641H11.7079C12.2396 14.5641 12.6797 14.438 13.0283 14.1821Z" fill="#141414"/>
<path fill-rule="evenodd" clip-rule="evenodd" d="M0.748047 0V32H32.748V0H0.748047ZM20.1334 9.97289H25.6571V11.3176H20.1334V9.97289ZM16.6851 20.5157C16.4183 21.0223 16.055 21.4328 15.6072 21.7497C15.156 22.0693 14.6375 22.3037 14.0569 22.4563C13.4829 22.6089 12.8866 22.6857 12.2761 22.6857H5.67112V9.05874H12.0958C12.7477 9.05874 13.3359 9.11508 13.8735 9.23161C14.4082 9.34505 14.8645 9.53431 15.25 9.79376C15.6295 10.0533 15.9267 10.3984 16.1393 10.8332C16.347 11.2615 16.4512 11.7979 16.4512 12.4321C16.4512 13.1181 16.2955 13.6911 15.9843 14.1491C15.6705 14.6064 15.2097 14.9817 14.5936 15.273C15.4325 15.514 16.0535 15.9385 16.4653 16.5421C16.8792 17.1498 17.0818 17.8769 17.0818 18.7294C17.0818 19.4204 16.9494 20.0155 16.6851 20.5157ZM27.8077 18.4047H20.6878C20.6878 19.1847 20.9515 19.9232 21.3589 20.3196C21.7646 20.716 22.3513 20.9153 23.1113 20.9153C23.658 20.9153 24.1305 20.7771 24.5266 20.5017C24.9193 20.2266 25.1583 19.9325 25.2508 19.627H27.6374C27.2539 20.8148 26.6718 21.6627 25.8779 22.1731C25.0932 22.6857 24.136 22.9412 23.0208 22.9412C22.2436 22.9412 21.5443 22.8154 20.9161 22.5675C20.2885 22.3166 19.764 21.9649 19.3229 21.5066C18.8928 21.046 18.5588 20.5018 18.3208 19.8623C18.0854 19.2263 17.9666 18.5222 17.9666 17.7591C17.9666 17.0213 18.0899 16.332 18.3309 15.6951C18.577 15.0558 18.9171 14.5043 19.3643 14.0417C19.8125 13.5765 20.3441 13.2094 20.9631 12.9414C21.5822 12.6743 22.2648 12.5399 23.0208 12.5399C23.8556 12.5399 24.5868 12.7005 25.2134 13.0277C25.8379 13.3504 26.3499 13.7878 26.7521 14.3353C27.1543 14.8818 27.4403 15.5069 27.6193 16.208C27.7966 16.908 27.8588 17.6392 27.8077 18.4047Z" fill="#141414"/>
<path fill-rule="evenodd" clip-rule="evenodd" d="M22.9391 14.5864C22.5061 14.5864 22.1478 14.6592 21.8608 14.8078C21.5803 14.9543 21.3504 15.1367 21.1746 15.3515C20.9998 15.5698 20.8805 15.8002 20.8113 16.0465C20.7416 16.2866 20.7002 16.5044 20.6875 16.6969H25.097C25.0323 16.0059 24.7957 15.495 24.4724 15.1358C24.1504 14.7792 23.6046 14.5864 22.9391 14.5864Z" fill="#141414"/>
</g>
<defs>
<clipPath id="clip0_607_75">
<rect width="32" height="32" fill="white" transform="translate(0.748047)"/>
</clipPath>
</defs>
</svg>
