<svg width="34" height="32" viewBox="0 0 34 32" fill="none" xmlns="http://www.w3.org/2000/svg">
<path fill-rule="evenodd" clip-rule="evenodd" d="M17.3432 0C8.27958 0 0.938477 7.3411 0.938477 16.4047C0.938477 23.6638 5.63432 29.795 12.1552 31.9687C12.9754 32.1122 13.283 31.6201 13.283 31.1894C13.283 30.7998 13.2625 29.508 13.2625 28.1341C9.14083 28.8928 8.07452 27.1293 7.74643 26.2065C7.56187 25.7349 6.76215 24.279 6.06495 23.8893C5.49078 23.5818 4.67055 22.823 6.04444 22.8025C7.33631 22.782 8.25907 23.9919 8.56666 24.484C10.0431 26.9652 12.4013 26.268 13.3445 25.8374C13.4881 24.7711 13.9187 24.0534 14.3903 23.6433C10.7403 23.2332 6.92619 21.8183 6.92619 15.5435C6.92619 13.7594 7.56187 12.283 8.60767 11.1347C8.44363 10.7246 7.86946 9.04309 8.77172 6.78745C8.77172 6.78745 10.1456 6.35682 13.283 8.46893C14.5954 8.09982 15.9898 7.91527 17.3842 7.91527C18.7786 7.91527 20.173 8.09982 21.4854 8.46893C24.6228 6.33632 25.9967 6.78745 25.9967 6.78745C26.8989 9.04309 26.3248 10.7246 26.1607 11.1347C27.2065 12.283 27.8422 13.7389 27.8422 15.5435C27.8422 21.8388 24.0076 23.2332 20.3575 23.6433C20.9522 24.1559 21.4649 25.1402 21.4649 26.6781C21.4649 28.8723 21.4444 30.6358 21.4444 31.1894C21.4444 31.6201 21.7519 32.1327 22.5722 31.9687C29.052 29.795 33.7479 23.6433 33.7479 16.4047C33.7479 7.3411 26.4068 0 17.3432 0Z" fill="#141414"/>
</svg>
