<svg width="40" height="29" viewBox="0 0 40 29" fill="none" xmlns="http://www.w3.org/2000/svg">
<path d="M23.4386 16.2252L25.1786 16.2252L25.1786 17.9502L23.4386 17.9502L21.6986 17.9502L19.9586 17.9502L18.2186 17.9502L16.4786 17.9502L16.4786 16.2252L18.2186 16.2252L19.9586 16.2252L21.6986 16.2252L23.4386 16.2252ZM16.4786 17.9502L14.7386 17.9502L14.7386 19.6752L14.7386 21.4002L16.4786 21.4002L16.4786 19.6752L16.4786 17.9502ZM21.6986 26.5752L19.9586 26.5752L18.2186 26.5752L16.4786 26.5752L16.4786 24.8502L16.4786 23.1252L14.7386 23.1252L14.7386 24.8502L14.7386 26.5752L12.9986 26.5752L11.2586 26.5752L9.51863 26.5752L9.51863 28.3002L11.2586 28.3002L12.9986 28.3002L14.7386 28.3002L16.4786 28.3002L18.2186 28.3002L19.9586 28.3002L21.6986 28.3002L21.6986 26.5752ZM7.77863 24.8502L6.03863 24.8502L4.29863 24.8502L4.29863 26.5752L6.03863 26.5752L7.77863 26.5752L9.51863 26.5752L9.51863 24.8502L7.77863 24.8502ZM2.55863 23.1252L2.55863 21.4002L2.55863 19.6752L2.55863 17.9502L2.55863 16.2252L2.55863 14.5002L2.55863 12.7752L2.55863 11.0502L2.55863 9.32519L4.29863 9.32519L4.29863 7.60019L2.55863 7.60019L0.81863 7.60019L0.81863 9.32519L0.81863 11.0502L0.81863 12.7752L0.81863 14.5002L0.81863 16.2252L0.818629 17.9502L0.818629 19.6752L0.818629 21.4002L0.818629 23.1252L0.818629 24.8502L2.55863 24.8502L4.29863 24.8502L4.29863 23.1252L2.55863 23.1252ZM21.6986 21.4002L19.9586 21.4002L18.2186 21.4002L16.4786 21.4002L16.4786 23.1252L18.2186 23.1252L19.9586 23.1252L21.6986 23.1252L23.4386 23.1252L23.4386 24.8502L25.1786 24.8502L25.1786 23.1252L25.1786 21.4002L23.4386 21.4002L21.6986 21.4002ZM25.1786 21.4002L26.9186 21.4002L26.9186 19.6752L26.9186 17.9502L25.1786 17.9502L25.1786 19.6752L25.1786 21.4002ZM21.6986 26.5752L23.4386 26.5752L23.4386 24.8502L21.6986 24.8502L21.6986 26.5752ZM16.4786 12.7752L14.7386 12.7752L12.9986 12.7752L12.9986 14.5002L14.7386 14.5002L14.7386 16.2252L16.4786 16.2252L16.4786 14.5002L16.4786 12.7752ZM12.9986 9.32519L11.2586 9.32519L11.2586 11.0502L11.2586 12.7752L12.9986 12.7752L12.9986 11.0502L12.9986 9.32519ZM14.7386 7.60019L12.9986 7.60019L12.9986 9.32519L14.7386 9.32519L14.7386 7.60019ZM19.9586 5.87519L19.9586 7.60019L21.6986 7.60019L23.4386 7.60019L25.1786 7.60019L26.9186 7.60019L28.6586 7.60019L30.3986 7.60019L32.1386 7.60019L33.8786 7.60019L35.6186 7.60019L37.3586 7.60019L37.3586 5.87519L35.6186 5.87519L33.8786 5.87519L32.1386 5.87519L30.3986 5.87519L28.6586 5.87519L26.9186 5.87519L25.1786 5.87519L23.4386 5.87519L21.6986 5.87519L21.6986 4.15019L21.6986 2.42519L19.9586 2.42519L19.9586 4.15019L19.9586 5.87519ZM16.4786 2.42519L18.2186 2.42519L19.9586 2.42519L19.9586 0.700194L18.2186 0.700194L16.4786 0.700194L14.7386 0.700194L12.9986 0.700194L12.9986 2.42519L14.7386 2.42519L16.4786 2.42519ZM12.9986 4.15019L12.9986 2.42519L11.2586 2.42519L9.51863 2.42519L9.51863 4.15019L11.2586 4.15019L12.9986 4.15019ZM9.51863 4.15019L7.77863 4.15019L7.77863 5.87519L9.51863 5.87519L9.51863 4.15019ZM7.77863 7.60019L7.77863 5.87519L6.03863 5.87519L4.29863 5.87519L4.29863 7.60019L6.03863 7.60019L7.77863 7.60019ZM37.3586 11.0502L39.0986 11.0502L39.0986 9.32519L39.0986 7.60019L37.3586 7.60019L37.3586 9.32519L37.3586 11.0502ZM33.8786 11.0502L32.1386 11.0502L30.3986 11.0502L28.6586 11.0502L26.9186 11.0502L25.1786 11.0502L23.4386 11.0502L21.6986 11.0502L19.9586 11.0502L19.9586 9.32519L19.9586 7.60019L18.2186 7.60019L18.2186 9.32519L18.2186 11.0502L16.4786 11.0502L16.4786 12.7752L18.2186 12.7752L19.9586 12.7752L21.6986 12.7752L23.4386 12.7752L25.1786 12.7752L25.1786 14.5002L25.1786 16.2252L26.9186 16.2252L26.9186 14.5002L26.9186 12.7752L28.6586 12.7752L30.3986 12.7752L32.1386 12.7752L33.8786 12.7752L35.6186 12.7752L37.3586 12.7752L37.3586 11.0502L35.6186 11.0502L33.8786 11.0502Z" fill="#141414"/>
</svg>
