<svg width="33" height="32" viewBox="0 0 33 32" fill="none" xmlns="http://www.w3.org/2000/svg">
<path d="M29.164 0H4.58805C2.46837 0 0.748047 1.70667 0.748047 3.80952V28.1905C0.748047 30.2933 2.46837 32 4.58805 32H29.164C31.2837 32 33.004 30.2933 33.004 28.1905V3.80952C33.004 1.70667 31.2837 0 29.164 0ZM10.732 12.1905V26.6667H6.12405V12.1905H10.732ZM6.12405 7.97714C6.12405 6.91048 7.04565 6.09524 8.42805 6.09524C9.81045 6.09524 10.6783 6.91048 10.732 7.97714C10.732 9.04381 9.87189 9.90476 8.42805 9.90476C7.04565 9.90476 6.12405 9.04381 6.12405 7.97714ZM27.628 26.6667H23.02C23.02 26.6667 23.02 19.6114 23.02 19.0476C23.02 17.5238 22.252 16 20.332 15.9695H20.2706C18.412 15.9695 17.644 17.539 17.644 19.0476C17.644 19.741 17.644 26.6667 17.644 26.6667H13.036V12.1905H17.644V14.141C17.644 14.141 19.1263 12.1905 22.1061 12.1905C25.1551 12.1905 27.628 14.2705 27.628 18.4838V26.6667Z" fill="#141414"/>
</svg>
