<svg width="55" height="55" viewBox="0 0 55 55" fill="none" xmlns="http://www.w3.org/2000/svg">
<g clip-path="url(#clip0_619_105)">
<path d="M30.7494 53.6502C28.9571 55.4425 26.0419 55.4425 24.2388 53.6502C22.4465 51.8579 22.4465 48.9427 24.2388 47.1396C26.0311 45.3473 28.9463 45.3473 30.7494 47.1396C32.5417 48.9319 32.5417 51.8471 30.7494 53.6502Z" fill="#2A272D"/>
<path d="M43.2201 45.4446C42.324 44.5917 41.1687 44.1814 40.0242 44.1922C39.182 44.1922 38.3723 43.9115 37.7784 43.3176L32.9737 38.5129C32.3799 37.9191 32.0884 37.1093 32.0992 36.2672C32.11 34.8528 31.4838 33.4492 30.1989 32.5098C28.6117 31.3437 26.3768 31.3437 24.7896 32.5098C23.5156 33.4492 22.8785 34.8636 22.8893 36.2672C22.8893 37.1093 22.6086 37.9191 22.0148 38.5129L17.2101 43.3176C16.6163 43.9115 15.8065 44.203 14.9643 44.1922C13.809 44.1922 12.6646 44.6025 11.7684 45.4446C9.94371 47.1722 9.87893 50.1737 11.6172 51.9876C13.4096 53.8447 16.3679 53.8555 18.1818 52.0416C19.1104 51.1131 19.5531 49.893 19.5207 48.6837C19.4991 47.874 19.823 47.0858 20.3952 46.5135L25.1999 41.7089C25.8045 41.1042 26.6251 40.8235 27.4673 40.8235H27.4889C28.331 40.8235 29.1624 41.1042 29.7562 41.7089L34.5609 46.5135C35.1331 47.0858 35.4571 47.874 35.4355 48.6837C35.4031 49.893 35.8565 51.1239 36.7743 52.0416C38.5882 53.8555 41.5466 53.8339 43.3389 51.9876C45.088 50.1845 45.0124 47.1722 43.1877 45.4446H43.2201Z" fill="#2A272D"/>
<path d="M4.59953 32.0994C7.13978 32.0994 9.19906 30.0402 9.19906 27.4999C9.19906 24.9597 7.13978 22.9004 4.59953 22.9004C2.05928 22.9004 0 24.9597 0 27.4999C0 30.0402 2.05928 32.0994 4.59953 32.0994Z" fill="#2A272D"/>
<path d="M9.55511 43.2206C10.4081 42.3244 10.8184 41.1692 10.8076 40.0247C10.8076 39.1825 11.0883 38.3727 11.6821 37.7789L16.4868 32.9742C17.0806 32.3804 17.8904 32.0889 18.7326 32.0997C20.147 32.1105 21.5506 31.4842 22.4899 30.1994C23.656 28.6122 23.656 26.3773 22.4899 24.7901C21.5506 23.516 20.1362 22.879 18.7326 22.8898C17.8904 22.8898 17.0806 22.6091 16.4868 22.0153L11.6821 17.2106C11.0883 16.6168 10.7968 15.807 10.8076 14.9648C10.8076 13.8095 10.3973 12.665 9.55511 11.7689C7.82759 9.9442 4.82602 9.87942 3.01212 11.6177C1.15503 13.41 1.14423 16.3684 2.95813 18.1823C3.88668 19.1109 5.10674 19.5535 6.316 19.5212C7.12578 19.4996 7.91396 19.8235 8.48621 20.3957L13.2909 25.2004C13.8955 25.805 14.1762 26.6256 14.1762 27.4678V27.4893C14.1762 28.3315 13.8955 29.1629 13.2909 29.7567L8.48621 34.5614C7.91396 35.1336 7.12578 35.4575 6.316 35.436C5.10674 35.4036 3.87588 35.857 2.95813 36.7748C1.14423 38.5887 1.16583 41.5471 3.01212 43.3394C4.81522 45.0885 7.82759 45.0129 9.55511 43.1882V43.2206Z" fill="#2A272D"/>
<path d="M27.4999 9.19906C30.0402 9.19906 32.0994 7.13978 32.0994 4.59953C32.0994 2.05928 30.0402 0 27.4999 0C24.9597 0 22.9004 2.05928 22.9004 4.59953C22.9004 7.13978 24.9597 9.19906 27.4999 9.19906Z" fill="#2A272D"/>
<path d="M11.7792 9.5556C12.6754 10.4086 13.8307 10.8188 14.9752 10.8081C15.8173 10.8081 16.6271 11.0888 17.2209 11.6826L22.0256 16.4873C22.6195 17.0811 22.911 17.8909 22.9002 18.7331C22.8894 20.1475 23.5156 21.5511 24.8004 22.4904C26.3876 23.6565 28.6226 23.6565 30.2098 22.4904C31.4838 21.5511 32.1208 20.1367 32.11 18.7331C32.11 17.8909 32.3908 17.0811 32.9846 16.4873L37.7893 11.6826C38.3831 11.0888 39.1929 10.7973 40.035 10.8081C41.1903 10.8081 42.3348 10.3978 43.231 9.5556C45.0557 7.82808 45.1204 4.8265 43.3821 3.01261C41.5898 1.15552 38.6314 1.14472 36.8175 2.95862C35.889 3.88716 35.4463 5.10723 35.4787 6.31649C35.5003 7.12627 35.1764 7.91445 34.6041 8.48669L29.7995 13.2914C29.1948 13.896 28.3743 14.1767 27.5321 14.1767H27.5105C26.6683 14.1767 25.837 13.896 25.2431 13.2914L20.4385 8.48669C19.8662 7.91445 19.5423 7.12627 19.5639 6.31649C19.5963 5.10723 19.1428 3.87637 18.2251 2.95862C16.4112 1.14472 13.4528 1.16632 11.6605 3.01261C9.91136 4.81571 9.98694 7.82808 11.8116 9.5556H11.7792Z" fill="#2A272D"/>
<path d="M53.6499 24.2501C55.4422 26.0424 55.4422 28.9576 53.6499 30.7607C51.8576 32.553 48.9424 32.553 47.1393 30.7607C45.3362 28.9684 45.347 26.0532 47.1393 24.2501C48.9316 22.447 51.8468 22.4578 53.6499 24.2501Z" fill="#2A272D"/>
<path d="M45.4441 11.7797C44.5912 12.6759 44.1809 13.8312 44.1917 14.9757C44.1917 15.8178 43.911 16.6276 43.3171 17.2214L38.5125 22.0261C37.9186 22.6199 37.1089 22.9115 36.2667 22.9007C34.8523 22.8899 33.4487 23.5161 32.5093 24.8009C31.3432 26.3881 31.3432 28.6231 32.5093 30.2102C33.4487 31.4843 34.8631 32.1213 36.2667 32.1105C37.1089 32.1105 37.9186 32.3912 38.5125 32.9851L43.3171 37.7897C43.911 38.3836 44.2025 39.1934 44.1917 40.0355C44.1917 41.1908 44.602 42.3353 45.4441 43.2314C47.1717 45.0561 50.1732 45.1209 51.9871 43.3826C53.8442 41.5903 53.855 38.6319 52.0411 36.818C51.1126 35.8895 49.8925 35.4468 48.6833 35.4792C47.8735 35.5008 47.0853 35.1769 46.5131 34.6046L41.7084 29.8C41.1037 29.1953 40.823 28.3748 40.823 27.5326V27.511C40.823 26.6688 41.1037 25.8375 41.7084 25.2436L46.5131 20.4389C47.0853 19.8667 47.8735 19.5428 48.6833 19.5644C49.8925 19.5968 51.1234 19.1433 52.0411 18.2256C53.855 16.4117 53.8334 13.4533 51.9871 11.661C50.184 9.91185 47.1717 9.98743 45.4441 11.8121V11.7797Z" fill="#2A272D"/>
</g>
<defs>
<clipPath id="clip0_619_105">
<rect width="55" height="55" fill="white"/>
</clipPath>
</defs>
</svg>
